<svg width="1000" height="230" viewBox="0 0 1000 230" fill="none" xmlns="http://www.w3.org/2000/svg" role="img" aria-label="Build timeline: IC Calculator 2023, DIY Flipper Zero 2025, Claude Usage Display 2026, Datasheet to Register Map 2026, Gestura now, Tiny Tapeout next">
  <defs>
    <linearGradient id="line" x1="0" y1="0" x2="1000" y2="0" gradientUnits="userSpaceOnUse">
      <stop offset="0" stop-color="#f2ebdd" stop-opacity="0.2"/><stop offset="0.45" stop-color="#f2ebdd"/><stop offset="0.85" stop-color="#f2ebdd"/><stop offset="1" stop-color="#f2ebdd" stop-opacity="0.35"/>
    </linearGradient>
  </defs>
  <rect width="1000" height="230" fill="#0d0d0c"/>

  <line x1="100" y1="140" x2="900" y2="140" stroke="url(#line)" stroke-width="2.5"/>

  <g stroke="#f2ebdd" stroke-width="1" opacity="0.22">
    <line x1="100" y1="140" x2="100" y2="86"/><line x1="260" y1="140" x2="260" y2="86"/><line x1="420" y1="140" x2="420" y2="86"/>
    <line x1="580" y1="140" x2="580" y2="86"/><line x1="740" y1="140" x2="740" y2="86"/><line x1="900" y1="140" x2="900" y2="86"/>
    <line x1="100" y1="140" x2="100" y2="160"/><line x1="260" y1="140" x2="260" y2="160"/><line x1="900" y1="140" x2="900" y2="160"/>
  </g>

  <text x="740" y="40" text-anchor="middle" font-family="'JetBrains Mono',Consolas,monospace" font-size="10" letter-spacing="2" fill="#f2ebdd">NOW</text>
  <text x="900" y="40" text-anchor="middle" font-family="'JetBrains Mono',Consolas,monospace" font-size="10" letter-spacing="2" fill="#8f8776">NEXT</text>

  <g font-family="'Segoe UI',Helvetica,Arial,sans-serif" text-anchor="middle">
    <text x="100" y="58" font-size="13" font-weight="700" fill="#e9e2d3">IC Calculator</text>
    <text x="100" y="74" font-size="10.5" fill="#8f8776">74xx logic</text>
    <text x="260" y="58" font-size="13" font-weight="700" fill="#e9e2d3">DIY Flipper Zero</text>
    <text x="260" y="74" font-size="10.5" fill="#8f8776">RF &#183; NFC &#183; IR</text>
    <text x="420" y="58" font-size="13" font-weight="700" fill="#e9e2d3">Claude Usage</text>
    <text x="420" y="74" font-size="10.5" fill="#8f8776">live token display</text>
    <text x="580" y="58" font-size="13" font-weight="700" fill="#e9e2d3">Datasheet &#8594;</text>
    <text x="580" y="74" font-size="10.5" fill="#8f8776">Register Map</text>
    <text x="740" y="58" font-size="13" font-weight="700" fill="#faf6ec">Gestura</text>
    <text x="740" y="74" font-size="10.5" fill="#8f8776">on-device ML</text>
    <text x="900" y="58" font-size="13" font-weight="700" fill="#faf6ec">Tiny Tapeout</text>
    <text x="900" y="74" font-size="10.5" fill="#8f8776">to silicon</text>
  </g>

  <g>
    <circle cx="100" cy="140" r="6" fill="#f2ebdd"/><circle cx="100" cy="140" r="2.2" fill="#0d0d0c"/>
    <circle cx="260" cy="140" r="6" fill="#f2ebdd"/><circle cx="260" cy="140" r="2.2" fill="#0d0d0c"/>
    <circle cx="420" cy="140" r="6" fill="#f2ebdd"/><circle cx="420" cy="140" r="2.2" fill="#0d0d0c"/>
    <circle cx="580" cy="140" r="6" fill="#f2ebdd"/><circle cx="580" cy="140" r="2.2" fill="#0d0d0c"/>
    <circle cx="740" cy="140" r="11" fill="none" stroke="#f2ebdd" stroke-width="1.4" opacity="0.6"/>
    <circle cx="740" cy="140" r="7" fill="#f2ebdd"/><circle cx="740" cy="140" r="2.4" fill="#0d0d0c"/>
    <circle cx="900" cy="140" r="6.5" fill="#0d0d0c" stroke="#cfc6b3" stroke-width="1.6" stroke-dasharray="3 2.5"/>
  </g>

  <g font-family="'JetBrains Mono',Consolas,monospace" text-anchor="middle">
    <text x="100" y="182" font-size="12" fill="#a89f8d">2023</text>
    <text x="260" y="182" font-size="12" fill="#a89f8d">2025</text>
    <g stroke="#f2ebdd" stroke-width="1" opacity="0.3" fill="none"><path d="M420 168 V174 H740 V168"/></g>
    <text x="580" y="196" font-size="12" fill="#a89f8d">2026</text>
    <text x="900" y="182" font-size="12" fill="#8f8776">soon</text>
  </g>
</svg>
